<svg width="24" height="24" viewBox="0 0 24 24" fill="none" xmlns="http://www.w3.org/2000/svg">
<g clip-path="url(#clip0_19_2048)">
<path d="M21 16.0003V12.0003C20.9997 10.6568 20.698 9.3305 20.1172 8.11905C19.5364 6.9076 18.6912 5.84185 17.644 5.00029H20.277C20.4986 5.3779 20.8385 5.67193 21.2441 5.83687C21.6497 6.0018 22.0983 6.02845 22.5206 5.91267C22.9429 5.79689 23.3152 5.54516 23.5799 5.19642C23.8447 4.84769 23.9871 4.42142 23.9851 3.98358C23.9831 3.54574 23.8369 3.12076 23.569 2.77443C23.3011 2.42809 22.9266 2.17972 22.5033 2.06775C22.08 1.95577 21.6316 1.98645 21.2275 2.15503C20.8235 2.32361 20.4862 2.62069 20.268 3.00029H15.858C15.6397 2.1427 15.1419 1.38229 14.4433 0.839177C13.7446 0.296066 12.8849 0.0012207 12 0.0012207C11.1151 0.0012207 10.2554 0.296066 9.55672 0.839177C8.85806 1.38229 8.36027 2.1427 8.142 3.00029H3.723C3.50139 2.62267 3.16148 2.32864 2.75589 2.1637C2.3503 1.99877 1.90166 1.97212 1.4794 2.0879C1.05714 2.20368 0.684827 2.45541 0.42008 2.80415C0.155333 3.15288 0.0129225 3.57916 0.0148928 4.01699C0.0168631 4.45483 0.163104 4.87981 0.430979 5.22614C0.698853 5.57248 1.07342 5.82085 1.4967 5.93283C1.91999 6.0448 2.36837 6.01412 2.77246 5.84554C3.17655 5.67696 3.51379 5.37988 3.732 5.00029H6.356C5.30876 5.84185 4.46362 6.9076 3.88281 8.11905C3.30201 9.3305 3.00033 10.6568 3 12.0003V16.0003C2.20435 16.0003 1.44129 16.3164 0.87868 16.879C0.31607 17.4416 0 18.2046 0 19.0003L0 21.0003C0 21.7959 0.31607 22.559 0.87868 23.1216C1.44129 23.6842 2.20435 24.0003 3 24.0003H5C5.79565 24.0003 6.55871 23.6842 7.12132 23.1216C7.68393 22.559 8 21.7959 8 21.0003V19.0003C8 18.2046 7.68393 17.4416 7.12132 16.879C6.55871 16.3164 5.79565 16.0003 5 16.0003V12.0003C5.00163 10.769 5.32801 9.55991 5.94621 8.49505C6.5644 7.43019 7.45254 6.54724 8.521 5.93529C8.86194 6.56026 9.36493 7.08185 9.97712 7.44524C10.5893 7.80864 11.2881 8.00041 12 8.00041C12.7119 8.00041 13.4107 7.80864 14.0229 7.44524C14.6351 7.08185 15.1381 6.56026 15.479 5.93529C16.5475 6.54724 17.4356 7.43019 18.0538 8.49505C18.672 9.55991 18.9984 10.769 19 12.0003V16.0003C18.2044 16.0003 17.4413 16.3164 16.8787 16.879C16.3161 17.4416 16 18.2046 16 19.0003V21.0003C16 21.7959 16.3161 22.559 16.8787 23.1216C17.4413 23.6842 18.2044 24.0003 19 24.0003H21C21.7956 24.0003 22.5587 23.6842 23.1213 23.1216C23.6839 22.559 24 21.7959 24 21.0003V19.0003C24 18.2046 23.6839 17.4416 23.1213 16.879C22.5587 16.3164 21.7956 16.0003 21 16.0003V16.0003ZM6 19.0003V21.0003C6 21.2655 5.89464 21.5199 5.70711 21.7074C5.51957 21.8949 5.26522 22.0003 5 22.0003H3C2.73478 22.0003 2.48043 21.8949 2.29289 21.7074C2.10536 21.5199 2 21.2655 2 21.0003V19.0003C2 18.7351 2.10536 18.4807 2.29289 18.2932C2.48043 18.1056 2.73478 18.0003 3 18.0003H5C5.26522 18.0003 5.51957 18.1056 5.70711 18.2932C5.89464 18.4807 6 18.7351 6 19.0003ZM12 6.00029C11.6044 6.00029 11.2178 5.88299 10.8889 5.66322C10.56 5.44346 10.3036 5.1311 10.1522 4.76565C10.0009 4.4002 9.96126 3.99807 10.0384 3.6101C10.1156 3.22214 10.3061 2.86578 10.5858 2.58607C10.8655 2.30637 11.2219 2.11589 11.6098 2.03871C11.9978 1.96154 12.3999 2.00115 12.7654 2.15253C13.1308 2.3039 13.4432 2.56025 13.6629 2.88914C13.8827 3.21804 14 3.60472 14 4.00029C14 4.53072 13.7893 5.03943 13.4142 5.4145C13.0391 5.78957 12.5304 6.00029 12 6.00029ZM22 21.0003C22 21.2655 21.8946 21.5199 21.7071 21.7074C21.5196 21.8949 21.2652 22.0003 21 22.0003H19C18.7348 22.0003 18.4804 21.8949 18.2929 21.7074C18.1054 21.5199 18 21.2655 18 21.0003V19.0003C18 18.7351 18.1054 18.4807 18.2929 18.2932C18.4804 18.1056 18.7348 18.0003 19 18.0003H21C21.2652 18.0003 21.5196 18.1056 21.7071 18.2932C21.8946 18.4807 22 18.7351 22 19.0003V21.0003Z" fill="white"/>
</g>
<defs>
<clipPath id="clip0_19_2048">
<rect width="24" height="24" fill="white"/>
</clipPath>
</defs>
</svg>
